#!OML:ASF F:\VICON\USERDATA\INSTALL\rory3\rory3.ASF
:FULLY-SPECIFIED
:DEGREES
64
root -0.22031104435210974 17.587914578364 27.974046414558863 0.895743230065408 4.633122197331826 -3.329504215148728
lfemur -24.411713415246346 -0.6215581019622421 -22.607631632288488
ltibia 39.21662459151427
lfoot -7.6092798393755245 -10.098136182191725
ltoes -0.5399604406079845
rfemur -4.914726500822965 -0.7195336714235732 28.304116892651972
rtibia 82.84496605135448
rfoot 13.828828917383486 -10.12778770701428
rtoes 10.426225121509857
lowerback 15.235514514509326 2.0348436947619173 2.504190507544514
upperback -0.8175278615497533 3.279393915359968 0.8538545969430369
thorax -9.43697269905498 1.4526738552686629 -1.7565157767940014
lowerneck -19.83401020704698 -4.834185272986358 -2.2720264968491026
upperneck 14.466699483082238 -6.636658039124453 3.3862735504984336
head 7.913043322152765 -2.927778932399556 0.7254212187573136
lclavicle -2.9310311238722405e-15 9.120108777402421e-16
lhumerus -62.76978861041515 -8.774858567952613 98.12317222761406
lradius 110.81921197711317
lwrist 30.893229343454202
lhand -25.163760290205087 2.2116231196269287
lfingers 7.12502
lthumb 1.353357000330123 32.20224290820923
rclavicle -2.9310311238722405e-15 9.120108777402421e-16
rhumerus -44.893508091393066 10.792345991475777 -97.8397404426897
rradius 105.4994186070396
rwrist -9.535316010956024
rhand -16.996158384442367 38.380397269686355
rfingers 7.12502
rthumb 9.238858259905973 9.248439583251603
65
root -0.23825250066118464 17.396035825521263 28.793889245966596 0.7530619520461639 4.562431094311136 -2.40772689299452
lfemur -22.880567822653127 -1.100877628993045 -23.886861028914222
ltibia 42.27292115508211
lfoot -11.535125562934876 -7.538432203088616
ltoes 0.5211316563805326
rfemur -9.191555498044826 -2.120826805565898 26.076540159168328
rtibia 89.37784699816538
rfoot 12.326171628345875 -9.755677489792504
rtoes 10.813406051101497
lowerback 15.623139403086096 1.9390141116469244 1.3046271981045041
upperback -0.6193987626485828 2.9174460321844338 0.5290357063985736
thorax -9.562052104831587 1.328513970082707 -1.2249708703489826
lowerneck -20.15010667980047 -4.757859164660938 -2.195693488138821
upperneck 14.346917533760783 -6.566344522194356 3.4746047284464154
head 7.9096257385126565 -2.8736141119410776 0.7558937544166554
lclavicle -3.0323282571482245e-15 8.38932308870206e-16
lhumerus -59.77174568738042 -10.351173914146269 98.67470717441262
lradius 110.30494853791916
lwrist 31.508082751401556
lhand -25.507569427634607 2.892156048023888
lfingers 7.12502
lthumb 1.0212901119616073 32.882934628313656
rclavicle -3.0323282571482245e-15 8.38932308870206e-16
rhumerus -45.75977502875952 9.628411503298477 -98.62892591213175
rradius 104.00422780785418
rwrist -9.200682750460759
rhand -17.04882632578285 38.255936554822256
rfingers 7.12502
rthumb 9.187960908168524 9.115101140830529
66
root -0.24440179508522888 17.233282894695996 29.81726666791409 0.8083803399791667 4.344808425022178 -1.408733475845299
lfemur -20.973265671051585 -1.671780976385607 -25.201569890564464
ltibia 44.668992270316316
lfoot -14.947976426164637 -4.579695081349919
ltoes -0.15124764343387298
rfemur -13.962111458064065 -3.239221267918318 23.901312933486253
rtibia 95.08561183138713
rfoot 10.875416474050978 -8.880123899503756
rtoes 11.475026711999323
lowerback 15.937415269182132 1.8768456144328882 0.10652510575022722
upperback -0.44803730208881554 2.5852620578719696 0.17597897967685316
thorax -9.656444319096096 1.2186898240258282 -0.714437493172087
lowerneck -20.520111559418144 -4.674720377993184 -2.115876042928819
upperneck 14.195794401624063 -6.477430786276679 3.5572027112923905
head 7.906855427062251 -2.8131169995346625 0.7836730265824253
lclavicle -3.054735088181587e-15 8.225356783486837e-16
lhumerus -56.290040316650874 -12.134096250653723 99.06992308314547
lradius 109.49308680543201
lwrist 32.28716350648743
lhand -25.89364245159508 3.6823145113193547
lfingers 7.12502
lthumb 0.6484216828540699 33.67192710297635
rclavicle -3.054735088181587e-15 8.225356783486837e-16
rhumerus -46.721965519356324 8.358493625189684 -99.32910805350967
rradius 102.78834961025551
rwrist -9.007601951890566
rhand -17.074559370713132 38.16196469065465
rfingers 7.12502
rthumb 9.16306775345586 9.012716878715949
67
root -0.2389214042536048 17.11868973579924 31.12707663497028 1.0340000217085294 4.0585104855659955 -0.5471984106711756
lfemur -18.34760017125059 -2.1030634576521905 -26.141475071926347
ltibia 46.59153374945453
lfoot -17.180825662322565 -1.8720058998631943
ltoes -1.4616669616845357
rfemur -18.709549857112037 -4.0694724705491545 22.297285768985994
rtibia 100.11883361320405
rfoot 9.677031145752727 -7.772030993973768
rtoes 12.113882035796632
lowerback 16.2146210004397 1.8357650997307573 -0.8088229495049919
upperback -0.30715255477255166 2.3299141319557166 -0.08196426645088373
thorax -9.721554939406918 1.1344349215815055 -0.21559298662211612
lowerneck -20.85908381379535 -4.555335532744523 -2.044015231540755
upperneck 14.059764463796514 -6.323171760337382 3.634950658428796
head 7.908871076532998 -2.7274668854236217 0.8149998859836274
lclavicle -2.5834835106305287e-15 1.1638696160088397e-15
lhumerus -52.28216606554128 -13.8965206920191 99.3064706668329
lradius 108.52121552671245
lwrist 32.8581851851393
lhand -26.080542559121636 4.09534504980131
lfingers 7.12502
lthumb 0.4679364388708589 34.085017958235696
rclavicle -2.5834835106305287e-15 1.1638696160088397e-15
rhumerus -47.66711627392736 7.18937451172083 -99.80116543959012
rradius 102.05211020863112
rwrist -9.002782791566577
rhand -17.02220650670864 38.1539972226745
rfingers 7.12502
rthumb 9.213608471088062 8.980586328510629
